<svg width="70" height="70" viewBox="0 0 70 70" fill="none" xmlns="http://www.w3.org/2000/svg">
<rect x="1" y="1" width="68" height="68" rx="34" stroke="#1E4129" stroke-width="2"/>
<path d="M34.5097 20.475C38.9722 20.475 43.2222 22.175 46.4097 25.3625C52.9972 31.95 52.9972 42.7875 46.4097 49.375C42.5847 53.4125 37.2722 54.9 32.1722 54.2625L33.2347 50.0125C36.8472 50.4375 40.6722 49.1625 43.4347 46.4C48.3222 41.5125 48.3222 33.4375 43.4347 28.3375C41.0972 26 37.6972 24.725 34.5097 24.725V34.5L23.8847 23.875L34.5097 13.25V20.475ZM22.3972 49.375C16.8722 43.85 16.0222 35.35 19.8472 28.7625L23.0347 31.95C20.6972 36.625 21.5472 42.575 25.5847 46.4C26.6472 47.4625 27.9222 48.3125 29.4097 48.95L28.1347 53.2C26.0097 52.35 24.0972 51.075 22.3972 49.375Z" fill="#1E4129"/>
</svg>
